# xmcd
#
# Track frame offsets:
#	150
#	15597
#	40323
#	61213
#	74317
#	97641
#	117945
#	129689
#	153694
#	167554
#	185950
#
# Disc length: 2746 seconds
#
# Revision: 0
# Processed by: cddbd v1.5.2PL0 Copyright (c) Steve Scherf et al.
# Submitted via: dBpowerAMP V4.0
#
DISCID=920ab80b
DTITLE=Last Call - Compilation
DYEAR=1900
DGENRE=Blues
TTITLE0="10"
TTITLE1=Ramblin'
TTITLE2=Welcome
TTITLE3=Everytime
TTITLE4=Te-ni-nee-ni-nu
TTITLE5=Aw!
TTITLE6=El Cumbachero
TTITLE7=Tell Me
TTITLE8=Don't Treat Me Wrong
TTITLE9=Only You
TTITLE10=Back To New Orleans
EXTD=The title of this CD is "Compilation". This is an official compilation cd (not one I made myself)
EXTT0=
EXTT1=
EXTT2=
EXTT3=
EXTT4=
EXTT5=
EXTT6=
EXTT7=
EXTT8=
EXTT9=
EXTT10=
PLAYORDER=
